<svg clip-rule="evenodd" fill-rule="evenodd" stroke-linejoin="round" stroke-miterlimit="2" viewBox="0 0 330 100" xmlns="http://www.w3.org/2000/svg"><g fill-rule="nonzero"><path d="m.593 0h-.444l-.255-.7h.444l.099.272-.05.078.107.078.099.272zm-.541-.584.064.176h.212l-.064-.176zm.106.292.065.176h.212l-.065-.176z" transform="matrix(37.385747497 0 0 38.000077444 32.752153935 43.711933144)"/><path d="m.257 0h-.111l-.273-.75h.111z" transform="matrix(37.385747497 0 0 38.000077444 52.790919365 43.711933144)"/><path d="m.549 0h-.404l-.12-.331h.293l-.04-.108h-.182l.026.071h-.111l-.066-.182h.404zm-.373-.22.04.109h.182l-.04-.109z" transform="matrix(37.385747497 0 0 38.000077444 60.3802612975 43.711933144)"/><path d="m.55 0h-.404l-.2-.55h.404l.074.202h-.111l-.034-.091h-.182l.12.328h.182l-.033-.091h.111l.073.202z" transform="matrix(37.385747497 0 0 38.000077444 78.8861476575 43.711933144)"/><path d="m.569 0h-.134l-.219-.263-.032.06.074.203h-.112l-.273-.75h.112l.152.418.108-.218h.12l-.101.194.305.356z" transform="matrix(37.385747497 0 0 38.000077444 97.205245446 43.711933144)"/><path d="m.506 0h-.357l-.255-.7h.116l.213.584h.241l.042.116z" transform="matrix(37.385747497 0 0 38.000077444 120.907611735 43.711933144)"/><path d="m.029-.635h-.116l-.042-.115h.116zm.228.635h-.111l-.2-.55h.111z" transform="matrix(37.385747497 0 0 38.000077444 136.534627935 43.711933144)"/><path d="m.261-.55h.112l.031.55h-.141l-.353-.55h.126l.254.405z" transform="matrix(37.385747497 0 0 38.000077444 144.12446691 43.711933144)"/><path d="m.55 0h-.404l-.2-.55h.404l.12.331h-.293l.04.108h.182l-.026-.071h.111l.066.182zm-.453-.439.04.109h.182l-.04-.109z" transform="matrix(37.385747497 0 0 38.000077444 161.919582495 43.711933144)"/><path d="m.543 0h-.399l-.066-.182h.111l.026.071h.177l-.04-.109h-.288l-.12-.33h.399l.066.182h-.111l-.026-.071h-.177l.04.108h.288l.12.331z" transform="matrix(37.385747497 0 0 38.000077444 180.425468855 43.711933144)"/><path d="m.265 0h-.116l-.255-.7h.528l.255.7h-.116l-.213-.584h-.09l.213.584h-.116l-.213-.584h-.09z" transform="matrix(37.385747497 0 0 38.000077444 204.98831512 43.711933144)"/><path d="m.549 0h-.404l-.12-.331h.293l-.04-.108h-.182l.026.071h-.111l-.066-.182h.404zm-.373-.22.04.109h.182l-.04-.109z" transform="matrix(37.385747497 0 0 38.000077444 228.354283045 43.711933144)"/><path d="m.418 0h-.23l-.16-.439h-.073l-.04-.111h.073l-.055-.15h.111l.055.15h.119l.04.111h-.119l.12.328h.119l.04.111z" transform="matrix(37.385747497 0 0 38.000077444 246.860169405 43.711933144)"/><path d="m.418 0h-.23l-.16-.439h-.073l-.04-.111h.073l-.055-.15h.111l.055.15h.119l.04.111h-.119l.12.328h.119l.04.111z" transform="matrix(37.385747497 0 0 38.000077444 259.60930953 43.711933144)"/><path d="m.55 0h-.404l-.2-.55h.404l.12.331h-.293l.04.108h.182l-.026-.071h.111l.066.182zm-.453-.439.04.109h.182l-.04-.109z" transform="matrix(37.385747497 0 0 38.000077444 272.35745557 43.711933144)"/><path d="m.257 0h-.111l-.2-.55h.32l.04.111h-.209l.16.439z" transform="matrix(37.385747497 0 0 38.000077444 290.86334193 43.711933144)"/><path d="m.59 0h-.444l-.071-.195h.116l.029.079h.212l-.065-.176h-.328l-.148-.408h.444l.071.195h-.116l-.029-.079h-.212l.064.176h.328l.149.408z" transform="matrix(37.385747497 0 0 38.000077444 46.1922825435 81.71211163)"/><path d="m.418 0h-.23l-.16-.439h-.073l-.04-.111h.073l-.055-.15h.111l.055.15h.119l.04.111h-.119l.12.328h.119l.04.111z" transform="matrix(37.385747497 0 0 38.000077444 66.231147382 81.71211163)"/><path d="m.257 0h-.111l-.2-.55h.32l.04.111h-.209l.16.439z" transform="matrix(37.385747497 0 0 38.000077444 78.979691056 81.71211163)"/><path d="m.55 0h-.404l-.2-.55h.404l.12.331h-.293l.04.108h.182l-.026-.071h.111l.066.182zm-.453-.439.04.109h.182l-.04-.109z" transform="matrix(37.385747497 0 0 38.000077444 92.887139023 81.71211163)"/><path d="m.55 0h-.404l-.2-.55h.404l.12.331h-.293l.04.108h.182l-.026-.071h.111l.066.182zm-.453-.439.04.109h.182l-.04-.109z" transform="matrix(37.385747497 0 0 38.000077444 111.3932242 81.71211163)"/><path d="m.418 0h-.23l-.16-.439h-.073l-.04-.111h.073l-.055-.15h.111l.055.15h.119l.04.111h-.119l.12.328h.119l.04.111z" transform="matrix(37.385747497 0 0 38.000077444 129.89911056 81.71211163)"/><path d="m.265 0h-.116l-.255-.7h.528l.255.7h-.116l-.213-.584h-.09l.213.584h-.116l-.213-.584h-.09z" transform="matrix(37.385747497 0 0 38.000077444 149.00343609 81.71211163)"/><path d="m.55 0h-.404l-.2-.55h.111l.16.439h.182l-.161-.439h.112z" transform="matrix(37.385747497 0 0 38.000077444 172.369404015 81.71211163)"/><path d="m.257 0h-.111l-.2-.55h.32l.04.111h-.209l.16.439z" transform="matrix(37.385747497 0 0 38.000077444 190.913065605 81.71211163)"/><path d="m.549 0h-.404l-.12-.331h.293l-.04-.108h-.182l.026.071h-.111l-.066-.182h.404zm-.373-.22.04.109h.182l-.04-.109z" transform="matrix(37.385747497 0 0 38.000077444 204.820314755 81.71211163)"/><path d="m.257 0h-.111l-.273-.75h.111z" transform="matrix(37.385747497 0 0 38.000077444 223.326201115 81.71211163)"/><path d="m.265 0h-.116l-.255-.7h.528l.255.7h-.116l-.213-.584h-.09l.213.584h-.116l-.213-.584h-.09z" transform="matrix(37.385747497 0 0 38.000077444 237.271225495 81.71211163)"/><path d="m.549 0h-.404l-.12-.331h.293l-.04-.108h-.182l.026.071h-.111l-.066-.182h.404zm-.373-.22.04.109h.182l-.04-.109z" transform="matrix(37.385747497 0 0 38.000077444 260.63719342 81.71211163)"/><path d="m.33.2h-.111l-.273-.75h.404l.2.55h-.293zm-.233-.639.12.328h.182l-.12-.328z" transform="matrix(37.385747497 0 0 38.000077444 279.14307978 81.71211163)"/></g></svg>