<svg clip-rule="evenodd" fill-rule="evenodd" stroke-linejoin="round" stroke-miterlimit="2" viewBox="0 0 200 95" xmlns="http://www.w3.org/2000/svg"><g fill-rule="nonzero"><path d="m.265 0h-.116l-.255-.7h.444l.155.427h-.328l.1.273zm-.213-.584.071.195h.212l-.071-.195z" transform="matrix(15.0000122182 0 0 15.0000122182 11.5032934 38.08442884)"/><path d="m.55 0h-.404l-.2-.55h.404l.12.331h-.293l.04.108h.182l-.026-.071h.111l.066.182zm-.453-.439.04.109h.182l-.04-.109z" transform="matrix(15.0000122182 0 0 15.0000122182 19.364107 38.08442884)"/><path d="m.257 0h-.111l-.2-.55h.32l.04.111h-.209l.16.439z" transform="matrix(15.0000122182 0 0 15.0000122182 26.8010532 38.08442884)"/><path d="m.55 0h-.404l-.2-.55h.404l.074.202h-.111l-.034-.091h-.182l.12.328h.182l-.033-.091h.111l.073.202z" transform="matrix(15.0000122182 0 0 15.0000122182 32.3883962 38.08442884)"/><path d="m.55 0h-.404l-.2-.55h.404l.12.331h-.293l.04.108h.182l-.026-.071h.111l.066.182zm-.453-.439.04.109h.182l-.04-.109z" transform="matrix(15.0000122182 0 0 15.0000122182 39.7482756 38.08442884)"/><path d="m.258 0h-.112l-.2-.55h.404l.2.55h-.111l-.16-.439h-.182z" transform="matrix(15.0000122182 0 0 15.0000122182 47.1466884 38.08442884)"/><path d="m.418 0h-.23l-.16-.439h-.073l-.04-.111h.073l-.055-.15h.111l.055.15h.119l.04.111h-.119l.12.328h.119l.04.111z" transform="matrix(15.0000122182 0 0 15.0000122182 54.5836346 38.08442884)"/><path d="m.549 0h-.404l-.12-.331h.293l-.04-.108h-.182l.026.071h-.111l-.066-.182h.404zm-.373-.22.04.109h.182l-.04-.109z" transform="matrix(15.0000122182 0 0 15.0000122182 59.7085768 38.08442884)"/><path d="m.618.2h-.391l-.04-.111h.28l-.033-.089h-.288l-.2-.55h.399zm-.521-.639.12.328h.177l-.12-.328z" transform="matrix(15.0000122182 0 0 15.0000122182 67.145523 38.08442884)"/><path d="m.55 0h-.404l-.2-.55h.404l.12.331h-.293l.04.108h.182l-.026-.071h.111l.066.182zm-.453-.439.04.109h.182l-.04-.109z" transform="matrix(15.0000122182 0 0 15.0000122182 74.5054024 38.08442884)"/><path d="m.55 0h-.404l-.2-.55h.404zm-.453-.439.12.328h.182l-.12-.328z" transform="matrix(15.0000122182 0 0 15.0000122182 84.485553 38.08442884)"/><path d="m.295 0h-.111l-.16-.439h-.072l-.04-.111h.072l-.072-.2h.23l.041.111h-.12l.032.089h.12l.04.111h-.12l.16.439z" transform="matrix(15.0000122182 0 0 15.0000122182 91.9224992 38.08442884)"/><path d="m.265 0h-.116l-.255-.7h.444l.255.7h-.116l-.107-.292h-.212zm-.213-.584.064.176h.212l-.064-.176z" transform="matrix(15.0000122182 0 0 15.0000122182 99.320912 38.08442884)"/><path d="m.295 0h-.111l-.16-.439h-.072l-.04-.111h.072l-.072-.2h.23l.041.111h-.12l.032.089h.12l.04.111h-.12l.16.439z" transform="matrix(15.0000122182 0 0 15.0000122182 107.4514594 38.08442884)"/><path d="m.257 0h-.111l-.2-.55h.32l.04.111h-.209l.16.439z" transform="matrix(15.0000122182 0 0 15.0000122182 112.2681344 38.08442884)"/><path d="m.029-.635h-.116l-.042-.115h.116zm.228.635h-.111l-.2-.55h.111z" transform="matrix(15.0000122182 0 0 15.0000122182 117.8554774 38.08442884)"/><path d="m.55 0h-.404l-.2-.55h.404l.074.202h-.111l-.034-.091h-.182l.12.328h.182l-.033-.091h.111l.073.202z" transform="matrix(15.0000122182 0 0 15.0000122182 120.899616 38.08442884)"/><path d="m.549 0h-.404l-.12-.331h.293l-.04-.108h-.182l.026.071h-.111l-.066-.182h.404zm-.373-.22.04.109h.182l-.04-.109z" transform="matrix(15.0000122182 0 0 15.0000122182 128.2594954 38.08442884)"/><path d="m.258 0h-.112l-.2-.55h.404l.2.55h-.111l-.16-.439h-.182z" transform="matrix(15.0000122182 0 0 15.0000122182 135.6964416 38.08442884)"/><path d="m.402-.217h-.352l-.042-.116h.352z" transform="matrix(15.0000122182 0 0 15.0000122182 143.1333878 38.08442884)"/><path d="m.265 0h-.116l-.255-.7h.444l.255.7h-.116l-.107-.292h-.212zm-.213-.584.064.176h.212l-.064-.176z" transform="matrix(15.0000122182 0 0 15.0000122182 16.5897022 53.08548146)"/><path d="m.257 0h-.111l-.2-.55h.587l.2.55h-.111l-.16-.439h-.127l.16.439h-.111l-.16-.439h-.127z" transform="matrix(15.0000122182 0 0 15.0000122182 24.7202496 53.08548146)"/><path d="m.55 0h-.404l-.2-.55h.404l.12.331h-.293l.04.108h.182l-.026-.071h.111l.066.182zm-.453-.439.04.109h.182l-.04-.109z" transform="matrix(15.0000122182 0 0 15.0000122182 34.8930672 53.08548146)"/><path d="m.257 0h-.111l-.2-.55h.32l.04.111h-.209l.16.439z" transform="matrix(15.0000122182 0 0 15.0000122182 42.3300134 53.08548146)"/><path d="m.029-.635h-.116l-.042-.115h.116zm.228.635h-.111l-.2-.55h.111z" transform="matrix(15.0000122182 0 0 15.0000122182 47.878823 53.08548146)"/><path d="m.55 0h-.404l-.2-.55h.404l.074.202h-.111l-.034-.091h-.182l.12.328h.182l-.033-.091h.111l.073.202z" transform="matrix(15.0000122182 0 0 15.0000122182 50.961495 53.08548146)"/><path d="m.549 0h-.404l-.12-.331h.293l-.04-.108h-.182l.026.071h-.111l-.066-.182h.404zm-.373-.22.04.109h.182l-.04-.109z" transform="matrix(15.0000122182 0 0 15.0000122182 58.282841 53.08548146)"/><path d="m.258 0h-.112l-.2-.55h.404l.2.55h-.111l-.16-.439h-.182z" transform="matrix(15.0000122182 0 0 15.0000122182 65.7197872 53.08548146)"/><path d="m.549 0h-.404l-.12-.331h.293l-.04-.108h-.182l.026.071h-.111l-.066-.182h.404zm-.373-.22.04.109h.182l-.04-.109z" transform="matrix(15.0000122182 0 0 15.0000122182 75.6999378 53.08548146)"/><path d="m.258 0h-.112l-.2-.55h.404l.2.55h-.111l-.16-.439h-.182z" transform="matrix(15.0000122182 0 0 15.0000122182 83.136884 53.08548146)"/><path d="m.55 0h-.404l-.2-.55h.293l-.073-.2h.111zm-.453-.439.12.328h.182l-.12-.328z" transform="matrix(15.0000122182 0 0 15.0000122182 90.5738302 53.08548146)"/><path d="m.593 0h-.444l-.255-.7h.444l.099.272-.05.078.107.078.099.272zm-.541-.584.064.176h.212l-.064-.176zm.106.292.065.176h.212l-.065-.176z" transform="matrix(15.0000122182 0 0 15.0000122182 100.5539808 53.08548146)"/><path d="m.257 0h-.111l-.273-.75h.111z" transform="matrix(15.0000122182 0 0 15.0000122182 108.6074614 53.08548146)"/><path d="m.549 0h-.404l-.12-.331h.293l-.04-.108h-.182l.026.071h-.111l-.066-.182h.404zm-.373-.22.04.109h.182l-.04-.109z" transform="matrix(15.0000122182 0 0 15.0000122182 111.6516 53.08548146)"/><path d="m.55 0h-.404l-.2-.55h.404l.074.202h-.111l-.034-.091h-.182l.12.328h.182l-.033-.091h.111l.073.202z" transform="matrix(15.0000122182 0 0 15.0000122182 119.0885462 53.08548146)"/><path d="m.569 0h-.134l-.219-.263-.032.06.074.203h-.112l-.273-.75h.112l.152.418.108-.218h.12l-.101.194.305.356z" transform="matrix(15.0000122182 0 0 15.0000122182 126.4098922 53.08548146)"/><path d="m.55 0h-.404l-.2-.55h.404l.074.202h-.111l-.034-.091h-.182l.12.328h.182l-.033-.091h.111l.073.202z" transform="matrix(15.0000122182 0 0 15.0000122182 135.927642 53.08548146)"/><path d="m.029-.635h-.116l-.042-.115h.116zm.228.635h-.111l-.2-.55h.111z" transform="matrix(15.0000122182 0 0 15.0000122182 143.2875214 53.08548146)"/><path d="m.418 0h-.23l-.16-.439h-.073l-.04-.111h.073l-.055-.15h.111l.055.15h.119l.04.111h-.119l.12.328h.119l.04.111z" transform="matrix(15.0000122182 0 0 15.0000122182 146.33166 53.08548146)"/><path d="m.029-.635h-.116l-.042-.115h.116zm.228.635h-.111l-.2-.55h.111z" transform="matrix(15.0000122182 0 0 15.0000122182 151.4566022 53.08548146)"/><path d="m.208-.111h.255l.04.111h-.373l-.04-.111.137-.328h-.257l-.04-.111h.373l.04.111z" transform="matrix(15.0000122182 0 0 15.0000122182 154.5007408 53.08548146)"/><path d="m.55 0h-.404l-.2-.55h.404l.12.331h-.293l.04.108h.182l-.026-.071h.111l.066.182zm-.453-.439.04.109h.182l-.04-.109z" transform="matrix(15.0000122182 0 0 15.0000122182 161.0128854 53.08548146)"/><path d="m.258 0h-.112l-.2-.55h.404l.2.55h-.111l-.16-.439h-.182z" transform="matrix(15.0000122182 0 0 15.0000122182 168.4112982 53.08548146)"/><path d="m.543 0h-.399l-.066-.182h.111l.026.071h.177l-.04-.109h-.288l-.12-.33h.399l.066.182h-.111l-.026-.071h-.177l.04.108h.288l.12.331z" transform="matrix(15.0000122182 0 0 15.0000122182 175.8482444 53.08548146)"/></g><path d="m54.022 78.712h-3.224l-9.749-19.267h3.224z" fill="#f8f6f1"/><path d="m71.327 78.712h-3.118l-9.749-19.267h3.117z" fill="#f8f6f1"/><path d="m88.667 78.712h-3.224l-9.75-19.267h3.224z" fill="#f8f6f1"/><path d="m105.971 78.712h-3.117l-9.75-19.267h3.118z" fill="#f8f6f1"/><path d="m123.311 78.712h-3.224l-9.749-19.267h3.224z" fill="#f8f6f1"/><path d="m140.616 78.712h-3.118l-9.749-19.267h3.117z" fill="#f8f6f1"/><path d="m157.956 78.712h-3.224l-9.75-19.267h3.224z" fill="#f8f6f1"/><path d="m146.431 78.712h-3.224l-9.749-19.267h3.224z" fill="#f8f6f1"/><path d="m129.127 78.712h-3.224l-9.75-19.267h3.224z" fill="#f8f6f1"/><path d="m100.262 78.712h-3.188l-9.75-19.267h3.189z" fill="#f8f6f1"/><path d="m77.142 78.712h-3.224l-9.749-19.267h3.224z" fill="#f8f6f1"/><path d="m59.838 78.712h-3.224l-9.75-19.267h3.224z" fill="#f8f6f1"/><path d="m48.207 78.712h-3.118l-9.749-19.267h3.117z" fill="#f8f6f1"/><path d="m65.618 78.712h-3.189l-9.749-19.267h3.188z" fill="#f8f6f1"/><path d="m82.851 78.712h-3.117l-9.75-19.267h3.118z" fill="#f8f6f1"/><path d="m134.907 78.712h-3.189l-9.749-19.267h3.188z" fill="#f8f6f1"/><path d="m152.14 78.712h-3.117l-9.75-19.267h3.118z" fill="#f8f6f1"/><path d="m117.496 78.712h-3.118l-9.749-19.267h3.117z" fill="#f8f6f1"/><path d="m163.771 78.712h-3.224l-9.749-19.267h3.224z" fill="#f8f6f1"/><path d="m111.787 78.712h-3.224l-9.75-19.267h3.224z" fill="#f8f6f1"/><path d="m94.482 78.712h-3.224l-9.749-19.267h3.224z" fill="#f8f6f1"/><path d="m50.798 78.712h-2.591l-9.75-19.267h2.592z" fill="#f2ece5"/><path d="m120.087 78.712h-2.591l-9.75-19.267h2.592z" fill="#967762"/><path d="m85.443 78.712h-2.592l-9.749-19.267h2.591z" fill="#c5b09f"/><path d="m154.732 78.712h-2.592l-9.749-19.267h2.591z" fill="#6b4835"/><path d="m108.563 78.712h-2.592l-9.749-19.267h2.591z" fill="#a58974"/><path d="m73.918 78.712h-2.591l-9.75-19.267h2.592z" fill="#d5c4b7"/><path d="m143.207 78.712h-2.591l-9.75-19.267h2.592z" fill="#795642"/><path d="m114.378 78.712h-2.591l-9.75-19.267h2.592z" fill="#9d806b"/><path d="m79.734 78.712h-2.592l-9.749-19.267h2.591z" fill="#cdbaab"/><path d="m149.023 78.712h-2.592l-9.749-19.267h2.591z" fill="#724f3b"/><path d="m102.854 78.712h-2.592l-9.749-19.267h2.591z" fill="#ad927e"/><path d="m68.209 78.712h-2.591l-9.75-19.267h2.592z" fill="#dccec3"/><path d="m137.498 78.712h-2.591l-9.75-19.267h2.592z" fill="#805e49"/><path d="m56.614 78.712h-2.592l-9.749-19.267h2.591z" fill="#ebe2da"/><path d="m125.903 78.712h-2.592l-9.749-19.267h2.591z" fill="#8e6e59"/><path d="m91.258 78.712h-2.591l-9.75-19.267h2.592z" fill="#bda694"/><path d="m160.547 78.712h-2.591l-9.75-19.267h2.592z" fill="#4d2d1d"/><path d="m62.429 78.712h-2.591l-9.75-19.267h2.592z" fill="#e4d8cf"/><path d="m131.718 78.712h-2.591l-9.75-19.267h2.592z" fill="#876651"/><path d="m97.074 78.712h-2.592l-9.749-19.267h2.591z" fill="#b59c89"/><path d="m.386 0 .2-.55h-.419l-.2.55zm-.174-.479h.277l-.148.408h-.277z" fill="#4d2d1d" fill-rule="nonzero" transform="matrix(7.70668 0 0 7.70668 7.951 67.85869)"/><path d="m.182-.093.002-.457h-.068v.55h.074l.385-.55h-.078z" fill="#4d2d1d" fill-rule="nonzero" transform="matrix(7.70668 0 0 7.70668 12.213 67.85869)"/><path d="m.386 0 .066-.182h-.071l-.04.111h-.277l.06-.166h.348l.114-.313h-.419l-.2.55zm-.174-.479h.278l-.063.171h-.277z" fill="#4d2d1d" fill-rule="nonzero" transform="matrix(7.70668 0 0 7.70668 16.051 67.85869)"/><path d="m.038 0 .174-.479h.282l.026-.071h-.353l-.2.55h.071z" fill="#4d2d1d" fill-rule="nonzero" transform="matrix(7.70668 0 0 7.70668 20.29 67.85869)"/><path d="m.425 0 .028-.076h-.204l.227-.624h-.28l-.028.076h.204l-.199.548h-.204l-.028.076h.484z" fill="#4d2d1d" fill-rule="nonzero" transform="matrix(7.70668 0 0 7.70668 25.168 67.85869)"/><path d="m.436 0 .255-.7h-.464l-.255.7zm-.161-.624h.312l-.199.548h-.312z" fill="#4d2d1d" fill-rule="nonzero" transform="matrix(7.70668 0 0 7.70668 29.314 67.85869)"/><path d="m.046 0 .107-.293h.388l.148-.407h-.464l-.255.7zm.227-.624h.312l-.093.255h-.312z" fill="#4d2d1d" fill-rule="nonzero" transform="matrix(7.70668 0 0 7.70668 10.071 75.56539)"/><path d="m.386 0 .066-.182h-.071l-.04.111h-.277l.06-.166h.348l.114-.313h-.419l-.2.55zm-.174-.479h.278l-.063.171h-.277z" fill="#4d2d1d" fill-rule="nonzero" transform="matrix(7.70668 0 0 7.70668 14.587 75.56539)"/><path d="m.038 0 .174-.479h.282l.026-.071h-.353l-.2.55h.071z" fill="#4d2d1d" fill-rule="nonzero" transform="matrix(7.70668 0 0 7.70668 18.826 75.56539)"/><path d="m.386 0 .066-.182h-.071l-.04.111h-.277l.148-.408h.278l-.041.111h.071l.066-.182h-.419l-.2.55z" fill="#4d2d1d" fill-rule="nonzero" transform="matrix(7.70668 0 0 7.70668 22.186 75.56539)"/><path d="m.386 0 .066-.182h-.071l-.04.111h-.277l.06-.166h.348l.114-.313h-.419l-.2.55zm-.174-.479h.278l-.063.171h-.277z" fill="#4d2d1d" fill-rule="nonzero" transform="matrix(7.70668 0 0 7.70668 26.355 75.56539)"/><path d="m.038 0 .174-.479h.277l-.174.479h.071l.2-.55h-.419l-.2.55h.071z" fill="#4d2d1d" fill-rule="nonzero" transform="matrix(7.70668 0 0 7.70668 30.594 75.56539)"/><path d="m.259 0 .026-.071h-.171l.148-.408h.171l.026-.071h-.171l.055-.15h-.071l-.055.15h-.102l-.026.071h.102l-.174.479h.242z" fill="#4d2d1d" fill-rule="nonzero" transform="matrix(7.70668 0 0 7.70668 34.855 75.56539)"/><path d="m.386 0 .2-.55h-.419l-.2.55zm-.174-.479h.277l-.148.408h-.277z" fill="#4d2d1d" fill-rule="nonzero" transform="matrix(7.70668 0 0 7.70668 159.89 67.85869)"/><path d="m.182-.093.002-.457h-.068v.55h.074l.385-.55h-.078z" fill="#4d2d1d" fill-rule="nonzero" transform="matrix(7.70668 0 0 7.70668 164.152 67.85869)"/><path d="m.386 0 .066-.182h-.071l-.04.111h-.277l.06-.166h.348l.114-.313h-.419l-.2.55zm-.174-.479h.278l-.063.171h-.277z" fill="#4d2d1d" fill-rule="nonzero" transform="matrix(7.70668 0 0 7.70668 167.99 67.85869)"/><path d="m.038 0 .174-.479h.282l.026-.071h-.353l-.2.55h.071z" fill="#4d2d1d" fill-rule="nonzero" transform="matrix(7.70668 0 0 7.70668 172.228 67.85869)"/><path d="m.137 0 .451-.584.042-.116h-.464l-.028.076h.391l-.481.624h.089z" fill="#4d2d1d" fill-rule="nonzero" transform="matrix(7.70668 0 0 7.70668 177.107 67.85869)"/><path d="m.436 0 .255-.7h-.464l-.255.7zm-.161-.624h.312l-.199.548h-.312z" fill="#4d2d1d" fill-rule="nonzero" transform="matrix(7.70668 0 0 7.70668 181.053 67.85869)"/><path d="m.046 0 .107-.293h.388l.148-.407h-.464l-.255.7zm.227-.624h.312l-.093.255h-.312z" fill="#4d2d1d" fill-rule="nonzero" transform="matrix(7.70668 0 0 7.70668 163.743 75.56539)"/><path d="m.386 0 .066-.182h-.071l-.04.111h-.277l.06-.166h.348l.114-.313h-.419l-.2.55zm-.174-.479h.278l-.063.171h-.277z" fill="#4d2d1d" fill-rule="nonzero" transform="matrix(7.70668 0 0 7.70668 168.259 75.56539)"/><path d="m.038 0 .174-.479h.282l.026-.071h-.353l-.2.55h.071z" fill="#4d2d1d" fill-rule="nonzero" transform="matrix(7.70668 0 0 7.70668 172.498 75.56539)"/><path d="m.386 0 .066-.182h-.071l-.04.111h-.277l.148-.408h.278l-.041.111h.071l.066-.182h-.419l-.2.55z" fill="#4d2d1d" fill-rule="nonzero" transform="matrix(7.70668 0 0 7.70668 175.858 75.56539)"/><path d="m.386 0 .066-.182h-.071l-.04.111h-.277l.06-.166h.348l.114-.313h-.419l-.2.55zm-.174-.479h.278l-.063.171h-.277z" fill="#4d2d1d" fill-rule="nonzero" transform="matrix(7.70668 0 0 7.70668 180.028 75.56539)"/><path d="m.038 0 .174-.479h.277l-.174.479h.071l.2-.55h-.419l-.2.55h.071z" fill="#4d2d1d" fill-rule="nonzero" transform="matrix(7.70668 0 0 7.70668 184.266 75.56539)"/><path d="m.259 0 .026-.071h-.171l.148-.408h.171l.026-.071h-.171l.055-.15h-.071l-.055.15h-.102l-.026.071h.102l-.174.479h.242z" fill="#4d2d1d" fill-rule="nonzero" transform="matrix(7.70668 0 0 7.70668 188.528 75.56539)"/></svg>