<svg clip-rule="evenodd" fill-rule="evenodd" stroke-linejoin="round" stroke-miterlimit="2" viewBox="0 0 170 95" xmlns="http://www.w3.org/2000/svg"><g fill-rule="nonzero"><path d="m.265 0h-.116l-.255-.7h.444l.042.116h-.328l.057.156h.15l.042.116h-.15l.114.312z" transform="matrix(15.0000122182 0 0 15.0000122182 50.6032934 40.44442884)"/><path d="m.549 0h-.404l-.12-.331h.293l-.04-.108h-.182l.026.071h-.111l-.066-.182h.404zm-.373-.22.04.109h.182l-.04-.109z" transform="matrix(15.0000122182 0 0 15.0000122182 58.078773 40.44442884)"/><path d="m.418 0h-.23l-.16-.439h-.073l-.04-.111h.073l-.055-.15h.111l.055.15h.119l.04.111h-.119l.12.328h.119l.04.111z" transform="matrix(15.0000122182 0 0 15.0000122182 65.5157192 40.44442884)"/><path d="m.549 0h-.404l-.12-.331h.293l-.04-.108h-.182l.026.071h-.111l-.066-.182h.404zm-.373-.22.04.109h.182l-.04-.109z" transform="matrix(15.0000122182 0 0 15.0000122182 70.6406614 40.44442884)"/><path d="m.257 0h-.111l-.273-.75h.111z" transform="matrix(15.0000122182 0 0 15.0000122182 78.0390742 40.44442884)"/><path d="m.593 0h-.444l-.255-.7h.444l.042.116h-.328l.057.156h.15l.042.116h-.15l.072.196h.328l.042.116z" transform="matrix(15.0000122182 0 0 15.0000122182 83.6649506 40.44442884)"/><path d="m.258 0h-.112l-.2-.55h.404l.2.55h-.111l-.16-.439h-.182z" transform="matrix(15.0000122182 0 0 15.0000122182 91.2560304 40.44442884)"/><path d="m.55 0h-.404l-.2-.55h.404l.074.202h-.111l-.034-.091h-.182l.12.328h.182l-.033-.091h.111l.073.202z" transform="matrix(15.0000122182 0 0 15.0000122182 98.73151 40.44442884)"/><path d="m.55 0h-.404l-.2-.55h.404zm-.453-.439.12.328h.182l-.12-.328z" transform="matrix(15.0000122182 0 0 15.0000122182 106.052856 40.44442884)"/><path d="m.55 0h-.404l-.2-.55h.111l.16.439h.182l-.161-.439h.112z" transform="matrix(15.0000122182 0 0 15.0000122182 113.4898022 40.44442884)"/><path d="m.258 0h-.112l-.2-.55h.404l.2.55h-.111l-.16-.439h-.182z" transform="matrix(15.0000122182 0 0 15.0000122182 120.9267484 40.44442884)"/><path d="m.418 0h-.23l-.16-.439h-.073l-.04-.111h.073l-.055-.15h.111l.055.15h.119l.04.111h-.119l.12.328h.119l.04.111z" transform="matrix(15.0000122182 0 0 15.0000122182 128.3636946 40.44442884)"/><path d="m.55 0h-.404l-.2-.55h.404l.12.331h-.293l.04.108h.182l-.026-.071h.111l.066.182zm-.453-.439.04.109h.182l-.04-.109z" transform="matrix(15.0000122182 0 0 15.0000122182 133.4886368 40.44442884)"/><path d="m.257 0h-.111l-.2-.55h.32l.04.111h-.209l.16.439z" transform="matrix(15.0000122182 0 0 15.0000122182 140.925583 40.44442884)"/><path d="m.543 0h-.399l-.066-.182h.111l.026.071h.177l-.04-.109h-.288l-.12-.33h.399l.066.182h-.111l-.026-.071h-.177l.04.108h.288l.12.331z" transform="matrix(15.0000122182 0 0 15.0000122182 146.512926 40.44442884)"/><path d="m.135 0h-.071v-.75h.071v.264l.064-.064h.194l.091.091v.368l-.091.091h-.194l-.064-.064v.064zm0-.387v.224l.092.092h.138l.048-.048v-.312l-.048-.048h-.138z" transform="matrix(8.862682 0 0 8.862682 54.1098328 50.44384614)"/><path d="m.383 0h-.238l-.091-.091v-.368l.091-.091h.238l.091.091v.222h-.349v.118l.048.048h.182l.048-.048v-.063h.071v.091l-.091.091zm-.258-.431v.123h.278v-.123l-.048-.048h-.182z" transform="matrix(8.862682 0 0 8.862682 58.8879744 50.44384614)"/><path d="m.357 0h-.151l-.091-.091v-.388h-.102v-.071h.102v-.15h.071v.15h.171v.071h-.171v.36l.048.048h.123v.071z" transform="matrix(8.862682 0 0 8.862682 63.473449 50.44384614)"/><path d="m.451-.108.101-.442h.072l-.134.55h-.072l-.094-.315-.094.315h-.072l-.134-.55h.074l.1.441.095-.341h.065z" transform="matrix(8.862682 0 0 8.862682 66.9029216 50.44384614)"/><path d="m.383 0h-.238l-.091-.091v-.368l.091-.091h.238l.091.091v.222h-.349v.118l.048.048h.182l.048-.048v-.063h.071v.091l-.091.091zm-.258-.431v.123h.278v-.123l-.048-.048h-.182z" transform="matrix(8.862682 0 0 8.862682 72.5673314 50.44384614)"/><path d="m.383 0h-.238l-.091-.091v-.368l.091-.091h.238l.091.091v.222h-.349v.118l.048.048h.182l.048-.048v-.063h.071v.091l-.091.091zm-.258-.431v.123h.278v-.123l-.048-.048h-.182z" transform="matrix(8.862682 0 0 8.862682 77.2298728 50.44384614)"/><path d="m.135 0h-.071v-.55h.071v.064l.064-.064h.194l.091.091v.459h-.071v-.431l-.048-.048h-.138l-.092.092z" transform="matrix(8.862682 0 0 8.862682 81.8924142 50.44384614)"/><path d="m.141 0h-.076v-.7h.359l.105.105v.198l-.105.105h-.283zm0-.624v.256h.248l.064-.064v-.128l-.064-.064z" transform="matrix(8.862682 0 0 8.862682 88.4816256 50.44384614)"/><path d="m.383 0h-.238l-.091-.091v-.368l.091-.091h.238l.091.091v.368l-.091.091zm-.258-.431v.312l.048.048h.182l.048-.048v-.312l-.048-.048h-.182z" transform="matrix(8.862682 0 0 8.862682 93.4524342 50.44384614)"/><path d="m98.682187248 43.79683464h.629250422v6.6470115h-.629250422z" stroke-width="8.862682"/><path d="m.137-.635h-.075v-.115h.075zm-.002.635h-.071v-.55h.071z" transform="matrix(8.862682 0 0 8.862682 99.887512 50.44384614)"/><path d="m.383 0h-.238l-.091-.091v-.368l.091-.091h.238l.091.091v.091h-.071v-.063l-.048-.048h-.182l-.048.048v.312l.048.048h.182l.048-.048v-.063h.071v.091z" transform="matrix(8.862682 0 0 8.862682 101.6600484 50.44384614)"/><path d="m.383 0h-.238l-.091-.091v-.368l.091-.091h.238l.091.091v.222h-.349v.118l.048.048h.182l.048-.048v-.063h.071v.091l-.091.091zm-.258-.431v.123h.278v-.123l-.048-.048h-.182z" transform="matrix(8.862682 0 0 8.862682 106.245523 50.44384614)"/><path d="m.335 0h-.194l-.091-.091v-.149l.091-.091h.258v-.1l-.048-.048h-.182l-.048.048v.063h-.071v-.091l.091-.091h.238l.091.091v.459h-.071v-.064l-.064.064zm-.214-.212v.093l.048.048h.138l.092-.092v-.097h-.23z" transform="matrix(8.862682 0 0 8.862682 112.6420674 50.44384614)"/><path d="m.135 0h-.071v-.55h.071v.064l.064-.064h.194l.091.091v.459h-.071v-.431l-.048-.048h-.138l-.092.092z" transform="matrix(8.862682 0 0 8.862682 117.3816756 50.44384614)"/><path d="m.474-.75v.75h-.071v-.064l-.064.064h-.194l-.091-.091v-.368l.091-.091h.194l.064.064v-.264zm-.163.679.092-.092v-.224l-.092-.092h-.138l-.048.048v.312l.048.048z" transform="matrix(8.862682 0 0 8.862682 122.1983506 50.44384614)"/><path d="m.564 0h-.083l-.058-.175h-.274l-.058.175h-.083l.235-.7h.086zm-.278-.585-.111.334h.222z" transform="matrix(8.862682 0 0 8.862682 128.4792948 50.44384614)"/><path d="m.178 0h-.071v-.479h-.092v-.071h.092v-.109l.091-.091h.141v.071h-.113l-.048.048v.081h.161v.071h-.161v.479z" transform="matrix(8.862682 0 0 8.862682 133.3730366 50.44384614)"/><path d="m.135 0h-.071v-.55h.071v.074l.074-.074h.208v.071h-.18l-.102.102v.377z" transform="matrix(8.862682 0 0 8.862682 136.4557086 50.44384614)"/><path d="m.137-.635h-.075v-.115h.075zm-.002.635h-.071v-.55h.071z" transform="matrix(8.862682 0 0 8.862682 140.2705152 50.44384614)"/><path d="m.383 0h-.238l-.091-.091v-.368l.091-.091h.238l.091.091v.091h-.071v-.063l-.048-.048h-.182l-.048.048v.312l.048.048h.182l.048-.048v-.063h.071v.091z" transform="matrix(8.862682 0 0 8.862682 142.0045182 50.44384614)"/><path d="m.335 0h-.194l-.091-.091v-.149l.091-.091h.258v-.1l-.048-.048h-.182l-.048.048v.063h-.071v-.091l.091-.091h.238l.091.091v.459h-.071v-.064l-.064.064zm-.214-.212v.093l.048.048h.138l.092-.092v-.097h-.23z" transform="matrix(8.862682 0 0 8.862682 146.5899928 50.44384614)"/><path d="m.135 0h-.071v-.55h.071v.064l.064-.064h.194l.091.091v.459h-.071v-.431l-.048-.048h-.138l-.092.092z" transform="matrix(8.862682 0 0 8.862682 151.2910676 50.44384614)"/><path d="m156.45646987 47.669826674h3.5450728v.673563832h-3.5450728z" stroke-width="8.862682"/><path d="m.564 0h-.083l-.058-.175h-.274l-.058.175h-.083l.235-.7h.086zm-.278-.585-.111.334h.222z" transform="matrix(8.862682 0 0 8.862682 53.8786324 59.44524838)"/><path d="m.135 0h-.071v-.55h.071v.054l.054-.054h.143l.053.052.052-.052h.163l.091.091v.459h-.071v-.433l-.048-.048h-.107l-.052.052v.429h-.071v-.443l-.038-.038h-.087l-.082.082z" transform="matrix(8.862682 0 0 8.862682 58.9265078 59.44524838)"/><path d="m.383 0h-.238l-.091-.091v-.368l.091-.091h.238l.091.091v.222h-.349v.118l.048.048h.182l.048-.048v-.063h.071v.091l-.091.091zm-.258-.431v.123h.278v-.123l-.048-.048h-.182z" transform="matrix(8.862682 0 0 8.862682 65.6313194 59.44524838)"/><path d="m.135 0h-.071v-.55h.071v.074l.074-.074h.208v.071h-.18l-.102.102v.377z" transform="matrix(8.862682 0 0 8.862682 70.2938608 59.44524838)"/><path d="m.137-.635h-.075v-.115h.075zm-.002.635h-.071v-.55h.071z" transform="matrix(8.862682 0 0 8.862682 74.070134 59.44524838)"/><path d="m.383 0h-.238l-.091-.091v-.368l.091-.091h.238l.091.091v.091h-.071v-.063l-.048-.048h-.182l-.048.048v.312l.048.048h.182l.048-.048v-.063h.071v.091z" transform="matrix(8.862682 0 0 8.862682 75.8426704 59.44524838)"/><path d="m.335 0h-.194l-.091-.091v-.149l.091-.091h.258v-.1l-.048-.048h-.182l-.048.048v.063h-.071v-.091l.091-.091h.238l.091.091v.459h-.071v-.064l-.064.064zm-.214-.212v.093l.048.048h.138l.092-.092v-.097h-.23z" transform="matrix(8.862682 0 0 8.862682 80.428145 59.44524838)"/><path d="m.135 0h-.071v-.55h.071v.064l.064-.064h.194l.091.091v.459h-.071v-.431l-.048-.048h-.138l-.092.092z" transform="matrix(8.862682 0 0 8.862682 85.1292198 59.44524838)"/><path d="m.335 0h-.194l-.091-.091v-.149l.091-.091h.258v-.1l-.048-.048h-.182l-.048.048v.063h-.071v-.091l.091-.091h.238l.091.091v.459h-.071v-.064l-.064.064zm-.214-.212v.093l.048.048h.138l.092-.092v-.097h-.23z" transform="matrix(8.862682 0 0 8.862682 91.7184312 59.44524838)"/><path d="m.135 0h-.071v-.55h.071v.064l.064-.064h.194l.091.091v.459h-.071v-.431l-.048-.048h-.138l-.092.092z" transform="matrix(8.862682 0 0 8.862682 96.4580394 59.44524838)"/><path d="m.474-.75v.75h-.071v-.064l-.064.064h-.194l-.091-.091v-.368l.091-.091h.194l.064.064v-.264zm-.163.679.092-.092v-.224l-.092-.092h-.138l-.048.048v.312l.048.048z" transform="matrix(8.862682 0 0 8.862682 101.2747144 59.44524838)"/><path d="m.423 0h-.358v-.7h.358l.106.106v.176l-.068.068.068.068v.176l-.106.106zm-.282-.624v.236h.248l.064-.064v-.108l-.064-.064zm0 .312v.236h.248l.064-.064v-.108l-.064-.064z" transform="matrix(8.862682 0 0 8.862682 107.786859 59.44524838)"/><path d="m113.517546248 52.79823688h.629250422v6.6470115h-.629250422z" stroke-width="8.862682"/><path d="m.335 0h-.194l-.091-.091v-.149l.091-.091h.258v-.1l-.048-.048h-.182l-.048.048v.063h-.071v-.091l.091-.091h.238l.091.091v.459h-.071v-.064l-.064.064zm-.214-.212v.093l.048.048h.138l.092-.092v-.097h-.23z" transform="matrix(8.862682 0 0 8.862682 114.722871 59.44524838)"/><path d="m.383 0h-.238l-.091-.091v-.368l.091-.091h.238l.091.091v.091h-.071v-.063l-.048-.048h-.182l-.048.048v.312l.048.048h.182l.048-.048v-.063h.071v.091z" transform="matrix(8.862682 0 0 8.862682 119.4239458 59.44524838)"/><path d="m.485 0h-.085l-.171-.311-.093.092v.219h-.072v-.75h.072v.434l.234-.234h.1l-.189.187.204.363z" transform="matrix(8.862682 0 0 8.862682 124.0094204 59.44524838)"/><path d="m.383 0h-.238l-.091-.091v-.368l.091-.091h.238l.091.091v.091h-.071v-.063l-.048-.048h-.182l-.048.048v.312l.048.048h.182l.048-.048v-.063h.071v.091z" transform="matrix(8.862682 0 0 8.862682 130.0206308 59.44524838)"/><path d="m.137-.635h-.075v-.115h.075zm-.002.635h-.071v-.55h.071z" transform="matrix(8.862682 0 0 8.862682 134.6061054 59.44524838)"/><path d="m.357 0h-.151l-.091-.091v-.388h-.102v-.071h.102v-.15h.071v.15h.171v.071h-.171v.36l.048.048h.123v.071z" transform="matrix(8.862682 0 0 8.862682 136.3786418 59.44524838)"/><path d="m.137-.635h-.075v-.115h.075zm-.002.635h-.071v-.55h.071z" transform="matrix(8.862682 0 0 8.862682 139.769581 59.44524838)"/><path d="m.04-.55h.424v.111l-.361.368h.361v.071h-.424v-.111l.36-.368h-.36z" transform="matrix(8.862682 0 0 8.862682 141.5421174 59.44524838)"/><path d="m.383 0h-.238l-.091-.091v-.368l.091-.091h.238l.091.091v.222h-.349v.118l.048.048h.182l.048-.048v-.063h.071v.091l-.091.091zm-.258-.431v.123h.278v-.123l-.048-.048h-.182z" transform="matrix(8.862682 0 0 8.862682 145.934925 59.44524838)"/><path d="m.135 0h-.071v-.55h.071v.064l.064-.064h.194l.091.091v.459h-.071v-.431l-.048-.048h-.138l-.092.092z" transform="matrix(8.862682 0 0 8.862682 150.5974664 59.44524838)"/><path d="m.368 0h-.229l-.09-.091v-.092h.071v.062l.048.049h.173l.047-.048v-.072l-.047-.048h-.201l-.091-.091v-.128l.091-.091h.229l.09.091v.091h-.071v-.062l-.048-.049h-.173l-.047.048v.072l.047.048h.201l.091.091v.129z" transform="matrix(8.862682 0 0 8.862682 155.4526748 59.44524838)"/></g><circle cx="25.678" cy="30.808" fill="#fec101" r="1.927"/><circle cx="29.532" cy="48.533" fill="#fec101" r="1.927"/><circle cx="12.384" cy="11.927" fill="#fec101" r="1.927"/><circle cx="10.458" cy="31.193" fill="#fec101" r="1.927"/><circle cx="23.944" cy="15.78" fill="#fec101" r="1.927"/><circle cx="35.504" cy="23.487" fill="#fec101" r="1.927"/><circle cx="35.504" cy="38.9" fill="#fec101" r="1.927"/><circle cx="33.578" cy="17.707" fill="#fec101" r="1.927"/><circle cx="16.238" cy="38.9" fill="#fec101" r="1.927"/><circle cx="16.238" cy="21.56" fill="#fec101" r="1.927"/><circle cx="25.871" cy="36.973" fill="#fec101" r="1.927"/><circle cx="20.091" cy="28.881" fill="#fec101" r="1.927"/><circle cx="25.678" cy="23.487" fill="#fec101" r="1.927"/><circle cx="33.578" cy="31.193" fill="#fec101" r="1.927"/><circle cx="29.724" cy="25.413" fill="#fec101" r="1.927"/></svg>