<svg clip-rule="evenodd" fill-rule="evenodd" stroke-linecap="round" stroke-linejoin="round" stroke-miterlimit="1.5" viewBox="0 0 190 95" xmlns="http://www.w3.org/2000/svg"><circle cx="37.908" cy="37.973" fill="none" r="26.973" stroke="#5a71a6" stroke-width="2.31"/><circle cx="37.908" cy="37.973" fill="none" r="21.193" stroke="#5a71a6" stroke-width="2.31"/><circle cx="37.908" cy="37.973" fill="none" r="15.413" stroke="#5a71a6" stroke-width="2.31"/><circle cx="37.908" cy="37.973" fill="none" r="9.633" stroke="#5a71a6" stroke-width="2.31"/><circle cx="37.908" cy="37.973" fill="none" r="2.89" stroke="#5a71a6" stroke-width="2.31"/><path d="m75.709 40.476h-1.74l-3.825-10.5h6.66l2.325 6.405h-4.92zm-3.195-8.76 1.065 2.925h3.18l-1.065-2.925z" fill-rule="nonzero"/><path d="m83.479 40.476h-1.665l-3-8.25h4.8l.6 1.665h-3.135z" fill-rule="nonzero"/><path d="m93.454 40.476h-6.06l-3-8.25h6.06zm-6.795-6.585 1.8 4.92h2.73l-1.8-4.92z" fill-rule="nonzero"/><path d="m98.914 40.476h-3.45l-2.4-6.585h-1.095l-.6-1.665h1.095l-.825-2.25h1.665l.825 2.25h1.785l.6 1.665h-1.785l1.8 4.92h1.785z" fill-rule="nonzero"/><path d="m106.009 40.476h-6.06l-3-8.25h6.06l1.8 4.965h-4.395l.6 1.62h2.73l-.39-1.065h1.665zm-6.795-6.585.6 1.635h2.73l-.6-1.635z" fill-rule="nonzero"/><path d="m113.329 40.476h-5.985l-.99-2.73h1.665l.39 1.065h2.655l-.6-1.635h-4.32l-1.8-4.95h5.985l.99 2.73h-1.665l-.39-1.065h-2.655l.6 1.62h4.32z" fill-rule="nonzero"/><path d="m118.759 40.476h-3.45l-2.4-6.585h-1.095l-.6-1.665h1.095l-.825-2.25h1.665l.825 2.25h1.785l.6 1.665h-1.785l1.8 4.92h1.785z" fill-rule="nonzero"/><path d="m127.744 40.476h-5.355l-3.825-10.5h1.74l3.195 8.76h3.615z" fill-rule="nonzero"/><path d="m134.674 40.476h-6.06l-3-8.25h6.06zm-6.795-6.585 1.8 4.92h2.73l-1.8-4.92z" fill-rule="nonzero"/><path d="m142.114 40.476h-6.06l-3-8.25h6.06l1.11 3.03h-1.665l-.51-1.365h-2.73l1.8 4.92h2.73l-.495-1.365h1.665z" fill-rule="nonzero"/><path d="m149.449 40.476h-6.06l-1.8-4.965h4.395l-.6-1.62h-2.73l.39 1.065h-1.665l-.99-2.73h6.06zm-5.595-3.3.6 1.635h2.73l-.6-1.635z" fill-rule="nonzero"/><path d="m154.909 40.476h-3.45l-2.4-6.585h-1.095l-.6-1.665h1.095l-.825-2.25h1.665l.825 2.25h1.785l.6 1.665h-1.785l1.8 4.92h1.785z" fill-rule="nonzero"/><path d="m154.189 30.951h-1.74l-.63-1.725h1.74zm3.42 9.525h-1.665l-3-8.25h1.665z" fill-rule="nonzero"/><path d="m165.049 40.476h-6.06l-3-8.25h6.06zm-6.795-6.585 1.8 4.92h2.73l-1.8-4.92z" fill-rule="nonzero"/><path d="m168.109 40.476h-1.68l-3-8.25h6.06l3 8.25h-1.665l-2.4-6.585h-2.73z" fill-rule="nonzero"/><path d="m179.824 40.476h-5.985l-.99-2.73h1.665l.39 1.065h2.655l-.6-1.635h-4.32l-1.8-4.95h5.985l.99 2.73h-1.665l-.39-1.065h-2.655l.6 1.62h4.32z" fill-rule="nonzero"/><path d="m37.908 37.973h34.388v35.818h-34.388z" fill="#fff"/><g fill-rule="nonzero"><path d="m-.03 0h.076l.228-.624h.166l-.228.624h.076l.228-.624h.165l-.227.624h.076l.255-.7h-.56l-.255.7z" transform="matrix(7.70668 0 0 7.70668 69.7172964 53.75408486)"/><path d="m.386 0 .2-.55h-.419l-.2.55zm-.174-.479h.277l-.148.408h-.277z" transform="matrix(7.70668 0 0 7.70668 75.1119724 53.75408486)"/><path d="m.038 0 .174-.479h.282l.026-.071h-.353l-.2.55h.071z" transform="matrix(7.70668 0 0 7.70668 79.3891798 53.75408486)"/><path d="m.386 0 .066-.182h-.071l-.04.111h-.277l.06-.166h.348l.114-.313h-.419l-.2.55zm-.174-.479h.278l-.063.171h-.277z" transform="matrix(7.70668 0 0 7.70668 82.7415856 53.75408486)"/><path d="m.259 0 .026-.071h-.171l.148-.408h.171l.026-.071h-.171l.055-.15h-.071l-.055.15h-.102l-.026.071h.102l-.174.479h.242z" transform="matrix(7.70668 0 0 7.70668 88.560129 53.75408486)"/><path d="m.038 0 .174-.479h.277l-.174.479h.071l.2-.55h-.348l.073-.2h-.071l-.273.75h.071z" transform="matrix(7.70668 0 0 7.70668 91.5657342 53.75408486)"/><path d="m.385 0 .2-.55h-.419l-.066.182h.071l.04-.111h.277l-.054.148h-.348l-.12.331h.419zm-.253-.26h.277l-.069.189h-.277z" transform="matrix(7.70668 0 0 7.70668 95.8044082 53.75408486)"/><path d="m.038 0 .174-.479h.277l-.174.479h.071l.2-.55h-.419l-.2.55h.071z" transform="matrix(7.70668 0 0 7.70668 100.0816156 53.75408486)"/><path d="m.425 0 .028-.076h-.204l.227-.624h-.28l-.028.076h.204l-.199.548h-.204l-.028.076h.484z" transform="matrix(7.70668 0 0 7.70668 106.0542926 53.75408486)"/><path d="m.046 0 .107-.293h.388l.148-.407h-.464l-.255.7zm.227-.624h.312l-.093.255h-.312z" transform="matrix(7.70668 0 0 7.70668 111.9113694 53.75408486)"/><path d="m.038 0 .174-.479h.282l.026-.071h-.353l-.2.55h.071z" transform="matrix(7.70668 0 0 7.70668 116.4197772 53.75408486)"/><path d="m.386 0 .2-.55h-.419l-.2.55zm-.174-.479h.277l-.148.408h-.277z" transform="matrix(7.70668 0 0 7.70668 119.772183 53.75408486)"/><path d="m.259 0 .026-.071h-.171l.148-.408h.171l.026-.071h-.171l.055-.15h-.071l-.055.15h-.102l-.026.071h.102l-.174.479h.242z" transform="matrix(7.70668 0 0 7.70668 124.0493904 53.75408486)"/><path d="m.386 0 .066-.182h-.071l-.04.111h-.277l.06-.166h.348l.114-.313h-.419l-.2.55zm-.174-.479h.278l-.063.171h-.277z" transform="matrix(7.70668 0 0 7.70668 127.0164622 53.75408486)"/><path d="m.373 0 .113-.311h-.337l.06-.168h.268l-.041.111h.071l.066-.182h-.409l-.113.31h.338l-.061.168h-.266l.04-.111h-.071l-.067.183h.409z" transform="matrix(7.70668 0 0 7.70668 131.2551362 53.75408486)"/><path d="m.259 0 .026-.071h-.171l.148-.408h.171l.026-.071h-.171l.055-.15h-.071l-.055.15h-.102l-.026.071h.102l-.174.479h.242z" transform="matrix(7.70668 0 0 7.70668 135.4167434 53.75408486)"/><path d="m.386 0 .2-.55h-.419l-.2.55zm-.174-.479h.277l-.148.408h-.277z" transform="matrix(7.70668 0 0 7.70668 138.4223486 53.75408486)"/><path d="m.038 0 .174-.479h.282l.026-.071h-.353l-.2.55h.071z" transform="matrix(7.70668 0 0 7.70668 142.6610226 53.75408486)"/><path d="m-.03 0h.076l.228-.624h.166l-.228.624h.076l.228-.624h.165l-.227.624h.076l.255-.7h-.56l-.255.7z" transform="matrix(7.70668 0 0 7.70668 69.7172964 61.46076486)"/><path d="m.386 0 .2-.55h-.419l-.2.55zm-.174-.479h.277l-.148.408h-.277z" transform="matrix(7.70668 0 0 7.70668 75.1119724 61.46076486)"/><path d="m.038 0 .174-.479h.282l.026-.071h-.353l-.2.55h.071z" transform="matrix(7.70668 0 0 7.70668 79.3891798 61.46076486)"/><path d="m.386 0 .066-.182h-.071l-.04.111h-.277l.06-.166h.348l.114-.313h-.419l-.2.55zm-.174-.479h.278l-.063.171h-.277z" transform="matrix(7.70668 0 0 7.70668 82.7415856 61.46076486)"/><path d="m.259 0 .026-.071h-.171l.148-.408h.171l.026-.071h-.171l.055-.15h-.071l-.055.15h-.102l-.026.071h.102l-.174.479h.242z" transform="matrix(7.70668 0 0 7.70668 88.560129 61.46076486)"/><path d="m.038 0 .174-.479h.277l-.174.479h.071l.2-.55h-.348l.073-.2h-.071l-.273.75h.071z" transform="matrix(7.70668 0 0 7.70668 91.5657342 61.46076486)"/><path d="m.385 0 .2-.55h-.419l-.066.182h.071l.04-.111h.277l-.054.148h-.348l-.12.331h.419zm-.253-.26h.277l-.069.189h-.277z" transform="matrix(7.70668 0 0 7.70668 95.8044082 61.46076486)"/><path d="m.038 0 .174-.479h.277l-.174.479h.071l.2-.55h-.419l-.2.55h.071z" transform="matrix(7.70668 0 0 7.70668 100.0816156 61.46076486)"/><path d="m.425 0 .028-.076h-.204l.227-.624h-.28l-.028.076h.204l-.199.548h-.204l-.028.076h.484z" transform="matrix(7.70668 0 0 7.70668 106.0542926 61.46076486)"/><path d="m.436 0 .255-.7h-.464l-.255.7zm-.161-.624h.312l-.199.548h-.312z" transform="matrix(7.70668 0 0 7.70668 110.1773664 61.46076486)"/><path d="m.046 0 .107-.293h.388l.148-.407h-.464l-.255.7zm.227-.624h.312l-.093.255h-.312z" transform="matrix(7.70668 0 0 7.70668 116.5739108 61.46076486)"/><path d="m.038 0 .174-.479h.282l.026-.071h-.353l-.2.55h.071z" transform="matrix(7.70668 0 0 7.70668 121.0823186 61.46076486)"/><path d="m.386 0 .2-.55h-.419l-.2.55zm-.174-.479h.277l-.148.408h-.277z" transform="matrix(7.70668 0 0 7.70668 124.4732578 61.46076486)"/><path d="m.259 0 .026-.071h-.171l.148-.408h.171l.026-.071h-.171l.055-.15h-.071l-.055.15h-.102l-.026.071h.102l-.174.479h.242z" transform="matrix(7.70668 0 0 7.70668 128.7119318 61.46076486)"/><path d="m.386 0 .066-.182h-.071l-.04.111h-.277l.06-.166h.348l.114-.313h-.419l-.2.55zm-.174-.479h.278l-.063.171h-.277z" transform="matrix(7.70668 0 0 7.70668 131.717537 61.46076486)"/><path d="m.373 0 .113-.311h-.337l.06-.168h.268l-.041.111h.071l.066-.182h-.409l-.113.31h.338l-.061.168h-.266l.04-.111h-.071l-.067.183h.409z" transform="matrix(7.70668 0 0 7.70668 135.956211 61.46076486)"/><path d="m.259 0 .026-.071h-.171l.148-.408h.171l.026-.071h-.171l.055-.15h-.071l-.055.15h-.102l-.026.071h.102l-.174.479h.242z" transform="matrix(7.70668 0 0 7.70668 140.0792848 61.46076486)"/><path d="m.386 0 .2-.55h-.419l-.2.55zm-.174-.479h.277l-.148.408h-.277z" transform="matrix(7.70668 0 0 7.70668 143.08489 61.46076486)"/><path d="m.038 0 .174-.479h.282l.026-.071h-.353l-.2.55h.071z" transform="matrix(7.70668 0 0 7.70668 147.3620974 61.46076486)"/><path d="m.373 0 .113-.311h-.337l.06-.168h.268l-.041.111h.071l.066-.182h-.409l-.113.31h.338l-.061.168h-.266l.04-.111h-.071l-.067.183h.409z" transform="matrix(7.70668 0 0 7.70668 150.7145032 61.46076486)"/><path d="m-.03 0h.076l.228-.624h.166l-.228.624h.076l.228-.624h.165l-.227.624h.076l.255-.7h-.56l-.255.7z" transform="matrix(7.70668 0 0 7.70668 69.7172964 69.16744486)"/><path d="m.386 0 .2-.55h-.419l-.2.55zm-.174-.479h.277l-.148.408h-.277z" transform="matrix(7.70668 0 0 7.70668 75.1119724 69.16744486)"/><path d="m.038 0 .174-.479h.282l.026-.071h-.353l-.2.55h.071z" transform="matrix(7.70668 0 0 7.70668 79.3891798 69.16744486)"/><path d="m.386 0 .066-.182h-.071l-.04.111h-.277l.06-.166h.348l.114-.313h-.419l-.2.55zm-.174-.479h.278l-.063.171h-.277z" transform="matrix(7.70668 0 0 7.70668 82.7415856 69.16744486)"/><path d="m.259 0 .026-.071h-.171l.148-.408h.171l.026-.071h-.171l.055-.15h-.071l-.055.15h-.102l-.026.071h.102l-.174.479h.242z" transform="matrix(7.70668 0 0 7.70668 88.560129 69.16744486)"/><path d="m.038 0 .174-.479h.277l-.174.479h.071l.2-.55h-.348l.073-.2h-.071l-.273.75h.071z" transform="matrix(7.70668 0 0 7.70668 91.5657342 69.16744486)"/><path d="m.385 0 .2-.55h-.419l-.066.182h.071l.04-.111h.277l-.054.148h-.348l-.12.331h.419zm-.253-.26h.277l-.069.189h-.277z" transform="matrix(7.70668 0 0 7.70668 95.8044082 69.16744486)"/><path d="m.038 0 .174-.479h.277l-.174.479h.071l.2-.55h-.419l-.2.55h.071z" transform="matrix(7.70668 0 0 7.70668 100.0816156 69.16744486)"/><path d="m.425 0 .028-.076h-.204l.227-.624h-.28l-.028.076h.204l-.199.548h-.204l-.028.076h.484z" transform="matrix(7.70668 0 0 7.70668 107.7497622 69.16744486)"/><path d="m.436 0 .255-.7h-.464l-.255.7zm-.161-.624h.312l-.199.548h-.312z" transform="matrix(7.70668 0 0 7.70668 111.9113694 69.16744486)"/><path d="m.436 0 .255-.7h-.464l-.255.7zm-.161-.624h.312l-.199.548h-.312z" transform="matrix(7.70668 0 0 7.70668 116.5739108 69.16744486)"/><path d="m.046 0 .107-.293h.388l.148-.407h-.464l-.255.7zm.227-.624h.312l-.093.255h-.312z" transform="matrix(7.70668 0 0 7.70668 122.9704552 69.16744486)"/><path d="m.038 0 .174-.479h.282l.026-.071h-.353l-.2.55h.071z" transform="matrix(7.70668 0 0 7.70668 127.478863 69.16744486)"/><path d="m.386 0 .2-.55h-.419l-.2.55zm-.174-.479h.277l-.148.408h-.277z" transform="matrix(7.70668 0 0 7.70668 130.8698022 69.16744486)"/><path d="m.259 0 .026-.071h-.171l.148-.408h.171l.026-.071h-.171l.055-.15h-.071l-.055.15h-.102l-.026.071h.102l-.174.479h.242z" transform="matrix(7.70668 0 0 7.70668 135.1084762 69.16744486)"/><path d="m.386 0 .066-.182h-.071l-.04.111h-.277l.06-.166h.348l.114-.313h-.419l-.2.55zm-.174-.479h.278l-.063.171h-.277z" transform="matrix(7.70668 0 0 7.70668 138.1140814 69.16744486)"/><path d="m.373 0 .113-.311h-.337l.06-.168h.268l-.041.111h.071l.066-.182h-.409l-.113.31h.338l-.061.168h-.266l.04-.111h-.071l-.067.183h.409z" transform="matrix(7.70668 0 0 7.70668 142.3527554 69.16744486)"/><path d="m.259 0 .026-.071h-.171l.148-.408h.171l.026-.071h-.171l.055-.15h-.071l-.055.15h-.102l-.026.071h.102l-.174.479h.242z" transform="matrix(7.70668 0 0 7.70668 146.4758292 69.16744486)"/><path d="m.386 0 .2-.55h-.419l-.2.55zm-.174-.479h.277l-.148.408h-.277z" transform="matrix(7.70668 0 0 7.70668 149.4814344 69.16744486)"/><path d="m.038 0 .174-.479h.282l.026-.071h-.353l-.2.55h.071z" transform="matrix(7.70668 0 0 7.70668 153.7586418 69.16744486)"/><path d="m.373 0 .113-.311h-.337l.06-.168h.268l-.041.111h.071l.066-.182h-.409l-.113.31h.338l-.061.168h-.266l.04-.111h-.071l-.067.183h.409z" transform="matrix(7.70668 0 0 7.70668 157.1110476 69.16744486)"/><path d="m-.03 0h.076l.228-.624h.166l-.228.624h.076l.228-.624h.165l-.227.624h.076l.255-.7h-.56l-.255.7z" transform="matrix(7.70668 0 0 7.70668 69.7172964 76.87412486)"/><path d="m.386 0 .2-.55h-.419l-.2.55zm-.174-.479h.277l-.148.408h-.277z" transform="matrix(7.70668 0 0 7.70668 75.1119724 76.87412486)"/><path d="m.038 0 .174-.479h.282l.026-.071h-.353l-.2.55h.071z" transform="matrix(7.70668 0 0 7.70668 79.3891798 76.87412486)"/><path d="m.386 0 .066-.182h-.071l-.04.111h-.277l.06-.166h.348l.114-.313h-.419l-.2.55zm-.174-.479h.278l-.063.171h-.277z" transform="matrix(7.70668 0 0 7.70668 82.7415856 76.87412486)"/><path d="m.259 0 .026-.071h-.171l.148-.408h.171l.026-.071h-.171l.055-.15h-.071l-.055.15h-.102l-.026.071h.102l-.174.479h.242z" transform="matrix(7.70668 0 0 7.70668 88.560129 76.87412486)"/><path d="m.038 0 .174-.479h.277l-.174.479h.071l.2-.55h-.348l.073-.2h-.071l-.273.75h.071z" transform="matrix(7.70668 0 0 7.70668 91.5657342 76.87412486)"/><path d="m.385 0 .2-.55h-.419l-.066.182h.071l.04-.111h.277l-.054.148h-.348l-.12.331h.419zm-.253-.26h.277l-.069.189h-.277z" transform="matrix(7.70668 0 0 7.70668 95.8044082 76.87412486)"/><path d="m.038 0 .174-.479h.277l-.174.479h.071l.2-.55h-.419l-.2.55h.071z" transform="matrix(7.70668 0 0 7.70668 100.0816156 76.87412486)"/><path d="m.425 0 .028-.076h-.204l.227-.624h-.28l-.028.076h.204l-.199.548h-.204l-.028.076h.484z" transform="matrix(7.70668 0 0 7.70668 106.0542926 76.87412486)"/><path d="m.436 0 .255-.7h-.464l-.255.7zm-.161-.624h.312l-.199.548h-.312z" transform="matrix(7.70668 0 0 7.70668 110.1773664 76.87412486)"/><path d="m.436 0 .255-.7h-.464l-.255.7zm-.161-.624h.312l-.199.548h-.312z" transform="matrix(7.70668 0 0 7.70668 114.8784412 76.87412486)"/><path d="m.436 0 .255-.7h-.464l-.255.7zm-.161-.624h.312l-.199.548h-.312z" transform="matrix(7.70668 0 0 7.70668 119.5409826 76.87412486)"/><path d="m.046 0 .107-.293h.388l.148-.407h-.464l-.255.7zm.227-.624h.312l-.093.255h-.312z" transform="matrix(7.70668 0 0 7.70668 125.937527 76.87412486)"/><path d="m.038 0 .174-.479h.282l.026-.071h-.353l-.2.55h.071z" transform="matrix(7.70668 0 0 7.70668 130.4844682 76.87412486)"/><path d="m.386 0 .2-.55h-.419l-.2.55zm-.174-.479h.277l-.148.408h-.277z" transform="matrix(7.70668 0 0 7.70668 133.836874 76.87412486)"/><path d="m.259 0 .026-.071h-.171l.148-.408h.171l.026-.071h-.171l.055-.15h-.071l-.055.15h-.102l-.026.071h.102l-.174.479h.242z" transform="matrix(7.70668 0 0 7.70668 138.075548 76.87412486)"/><path d="m.386 0 .066-.182h-.071l-.04.111h-.277l.06-.166h.348l.114-.313h-.419l-.2.55zm-.174-.479h.278l-.063.171h-.277z" transform="matrix(7.70668 0 0 7.70668 141.0811532 76.87412486)"/><path d="m.373 0 .113-.311h-.337l.06-.168h.268l-.041.111h.071l.066-.182h-.409l-.113.31h.338l-.061.168h-.266l.04-.111h-.071l-.067.183h.409z" transform="matrix(7.70668 0 0 7.70668 145.3198272 76.87412486)"/><path d="m.259 0 .026-.071h-.171l.148-.408h.171l.026-.071h-.171l.055-.15h-.071l-.055.15h-.102l-.026.071h.102l-.174.479h.242z" transform="matrix(7.70668 0 0 7.70668 149.4814344 76.87412486)"/><path d="m.386 0 .2-.55h-.419l-.2.55zm-.174-.479h.277l-.148.408h-.277z" transform="matrix(7.70668 0 0 7.70668 152.4485062 76.87412486)"/><path d="m.038 0 .174-.479h.282l.026-.071h-.353l-.2.55h.071z" transform="matrix(7.70668 0 0 7.70668 156.7257136 76.87412486)"/><path d="m.373 0 .113-.311h-.337l.06-.168h.268l-.041.111h.071l.066-.182h-.409l-.113.31h.338l-.061.168h-.266l.04-.111h-.071l-.067.183h.409z" transform="matrix(7.70668 0 0 7.70668 160.0781194 76.87412486)"/><path d="m-.03 0h.076l.228-.624h.166l-.228.624h.076l.228-.624h.165l-.227.624h.076l.255-.7h-.56l-.255.7z" transform="matrix(7.70668 0 0 7.70668 69.7172964 84.58080486)"/><path d="m.386 0 .2-.55h-.419l-.2.55zm-.174-.479h.277l-.148.408h-.277z" transform="matrix(7.70668 0 0 7.70668 75.1119724 84.58080486)"/><path d="m.038 0 .174-.479h.282l.026-.071h-.353l-.2.55h.071z" transform="matrix(7.70668 0 0 7.70668 79.3891798 84.58080486)"/><path d="m.386 0 .066-.182h-.071l-.04.111h-.277l.06-.166h.348l.114-.313h-.419l-.2.55zm-.174-.479h.278l-.063.171h-.277z" transform="matrix(7.70668 0 0 7.70668 82.7415856 84.58080486)"/><path d="m.259 0 .026-.071h-.171l.148-.408h.171l.026-.071h-.171l.055-.15h-.071l-.055.15h-.102l-.026.071h.102l-.174.479h.242z" transform="matrix(7.70668 0 0 7.70668 88.560129 84.58080486)"/><path d="m.038 0 .174-.479h.277l-.174.479h.071l.2-.55h-.348l.073-.2h-.071l-.273.75h.071z" transform="matrix(7.70668 0 0 7.70668 91.5657342 84.58080486)"/><path d="m.385 0 .2-.55h-.419l-.066.182h.071l.04-.111h.277l-.054.148h-.348l-.12.331h.419zm-.253-.26h.277l-.069.189h-.277z" transform="matrix(7.70668 0 0 7.70668 95.8044082 84.58080486)"/><path d="m.038 0 .174-.479h.277l-.174.479h.071l.2-.55h-.419l-.2.55h.071z" transform="matrix(7.70668 0 0 7.70668 100.0816156 84.58080486)"/><path d="m.425 0 .028-.076h-.204l.227-.624h-.28l-.028.076h.204l-.199.548h-.204l-.028.076h.484z" transform="matrix(7.70668 0 0 7.70668 107.7497622 84.58080486)"/><path d="m.436 0 .255-.7h-.464l-.255.7zm-.161-.624h.312l-.199.548h-.312z" transform="matrix(7.70668 0 0 7.70668 111.9113694 84.58080486)"/><path d="m.436 0 .255-.7h-.464l-.255.7zm-.161-.624h.312l-.199.548h-.312z" transform="matrix(7.70668 0 0 7.70668 116.5739108 84.58080486)"/><path d="m.436 0 .255-.7h-.464l-.255.7zm-.161-.624h.312l-.199.548h-.312z" transform="matrix(7.70668 0 0 7.70668 121.2749856 84.58080486)"/><path d="m.436 0 .255-.7h-.464l-.255.7zm-.161-.624h.312l-.199.548h-.312z" transform="matrix(7.70668 0 0 7.70668 125.937527 84.58080486)"/><path d="m.046 0 .107-.293h.388l.148-.407h-.464l-.255.7zm.227-.624h.312l-.093.255h-.312z" transform="matrix(7.70668 0 0 7.70668 132.3340714 84.58080486)"/><path d="m.038 0 .174-.479h.282l.026-.071h-.353l-.2.55h.071z" transform="matrix(7.70668 0 0 7.70668 136.8810126 84.58080486)"/><path d="m.386 0 .2-.55h-.419l-.2.55zm-.174-.479h.277l-.148.408h-.277z" transform="matrix(7.70668 0 0 7.70668 140.2334184 84.58080486)"/><path d="m.259 0 .026-.071h-.171l.148-.408h.171l.026-.071h-.171l.055-.15h-.071l-.055.15h-.102l-.026.071h.102l-.174.479h.242z" transform="matrix(7.70668 0 0 7.70668 144.4720924 84.58080486)"/><path d="m.386 0 .066-.182h-.071l-.04.111h-.277l.06-.166h.348l.114-.313h-.419l-.2.55zm-.174-.479h.278l-.063.171h-.277z" transform="matrix(7.70668 0 0 7.70668 147.4776976 84.58080486)"/><path d="m.373 0 .113-.311h-.337l.06-.168h.268l-.041.111h.071l.066-.182h-.409l-.113.31h.338l-.061.168h-.266l.04-.111h-.071l-.067.183h.409z" transform="matrix(7.70668 0 0 7.70668 151.7163716 84.58080486)"/><path d="m.259 0 .026-.071h-.171l.148-.408h.171l.026-.071h-.171l.055-.15h-.071l-.055.15h-.102l-.026.071h.102l-.174.479h.242z" transform="matrix(7.70668 0 0 7.70668 155.8779788 84.58080486)"/><path d="m.386 0 .2-.55h-.419l-.2.55zm-.174-.479h.277l-.148.408h-.277z" transform="matrix(7.70668 0 0 7.70668 158.8450506 84.58080486)"/><path d="m.038 0 .174-.479h.282l.026-.071h-.353l-.2.55h.071z" transform="matrix(7.70668 0 0 7.70668 163.122258 84.58080486)"/><path d="m.373 0 .113-.311h-.337l.06-.168h.268l-.041.111h.071l.066-.182h-.409l-.113.31h.338l-.061.168h-.266l.04-.111h-.071l-.067.183h.409z" transform="matrix(7.70668 0 0 7.70668 166.4746638 84.58080486)"/></g><path d="m38.66 41.021c.899 0 30.29 9.706 30.29 9.706" fill="none" stroke="#000" stroke-width=".77"/><path d="m38.66 47.607 30.29 11.393" fill="none" stroke="#000" stroke-width=".77"/><path d="m38.66 53.449 30.29 12.551" fill="none" stroke="#000" stroke-width=".77"/><path d="m38.66 59.471 30.29 14.32" fill="none" stroke="#000" stroke-width=".77"/><path d="m38.66 64.874 30.29 16.126" fill="none" stroke="#000" stroke-width=".77"/></svg>